<svg 
 xmlns="http://www.w3.org/2000/svg"
 xmlns:xlink="http://www.w3.org/1999/xlink"
 width="39px" height="59px">
<path fill-rule="evenodd"  fill="rgb(255, 230, 0)"
 d="M38.634,26.634 L38.634,27.261 L38.634,28.088 L37.814,28.200 L29.597,29.336 L28.518,29.485 L28.518,28.396 C28.518,28.224 28.529,27.954 28.553,27.585 C28.574,27.263 28.584,27.005 28.584,26.802 C28.584,26.328 28.552,25.868 28.486,25.435 C28.422,25.013 28.314,24.585 28.168,24.165 C28.057,23.850 27.901,23.613 27.690,23.441 C27.510,23.294 27.297,23.227 27.019,23.227 C26.474,23.227 26.114,23.409 25.853,23.816 C25.513,24.350 25.347,24.977 25.347,25.731 C25.347,26.436 25.457,27.100 25.674,27.706 C25.888,28.310 26.223,28.886 26.667,29.416 C27.156,30.003 27.610,30.492 28.016,30.871 C28.440,31.265 29.010,31.754 29.715,32.324 C30.471,32.937 30.991,33.373 31.306,33.658 C32.442,34.662 33.426,35.627 34.218,36.517 C35.023,37.422 35.791,38.453 36.498,39.583 C37.231,40.751 37.787,42.029 38.151,43.381 C38.514,44.722 38.699,46.188 38.699,47.734 C38.699,50.756 37.600,53.270 35.431,55.207 C33.295,57.113 30.670,58.081 27.632,58.081 C25.677,58.081 23.908,57.711 22.375,56.983 C20.828,56.251 19.559,55.236 18.604,53.966 C17.679,52.736 16.958,51.358 16.461,49.871 C15.971,48.399 15.684,46.797 15.605,45.113 L15.567,44.293 L16.373,44.138 L24.437,42.587 L25.565,42.370 L25.565,43.519 C25.565,44.309 25.581,45.006 25.607,45.593 C25.636,46.167 25.709,46.803 25.825,47.475 C25.934,48.111 26.077,48.628 26.254,49.009 C26.405,49.339 26.613,49.606 26.885,49.829 C27.102,50.004 27.347,50.086 27.654,50.086 C28.182,50.086 29.064,50.086 29.064,48.018 C29.064,45.563 27.607,43.040 24.733,40.516 L22.276,38.428 C21.496,37.779 20.849,37.216 20.363,36.760 C19.869,36.296 19.289,35.675 18.638,34.912 C17.961,34.118 17.420,33.333 17.032,32.580 C17.000,32.519 16.971,32.449 16.942,32.387 L16.791,32.599 L5.337,27.163 C5.337,27.163 4.848,26.749 5.487,26.711 C6.126,26.674 10.320,27.858 11.882,27.802 C12.748,27.727 14.252,27.276 13.406,25.602 C12.729,24.510 11.639,23.382 9.174,21.747 C8.931,21.614 8.741,21.050 9.475,21.295 C10.209,21.539 14.140,23.739 15.719,23.138 C15.820,23.084 15.973,22.983 16.136,22.835 C16.339,22.148 16.601,21.498 16.928,20.890 C16.900,20.273 16.678,19.517 16.115,18.604 C14.290,15.651 12.748,13.432 11.242,11.363 C11.177,11.140 11.206,10.976 11.335,10.991 C11.403,10.978 11.494,10.987 11.601,11.018 C13.671,12.523 15.891,14.065 18.843,15.890 C19.799,16.480 20.582,16.695 21.214,16.703 C21.798,16.394 22.415,16.130 23.068,15.917 C23.219,15.752 23.324,15.597 23.377,15.494 C23.978,13.915 21.777,9.984 21.533,9.250 C21.288,8.516 21.853,8.705 21.984,8.949 C23.622,11.413 24.750,12.504 25.841,13.180 C27.513,14.027 27.967,12.523 28.041,11.657 C28.097,10.096 26.913,5.902 26.952,5.263 C26.988,4.622 27.400,5.112 27.400,5.112 L32.796,16.480 C33.751,16.993 34.638,17.661 35.453,18.488 C37.576,20.645 38.655,23.280 38.655,26.322 L38.655,26.357 L38.650,26.393 L38.634,26.634 ZM24.749,3.462 C24.146,2.860 24.146,1.883 24.749,1.281 C25.350,0.678 26.328,0.678 26.931,1.280 C27.534,1.883 27.532,2.860 26.931,3.462 C26.328,4.065 25.351,4.065 24.749,3.462 ZM19.218,8.015 C18.616,7.411 18.616,6.435 19.219,5.833 C19.820,5.230 20.797,5.230 21.399,5.833 C22.003,6.435 22.003,7.412 21.399,8.015 C20.799,8.618 19.820,8.618 19.218,8.015 ZM8.102,10.253 C7.499,9.650 7.499,8.673 8.102,8.070 C8.705,7.469 9.682,7.469 10.284,8.070 C10.887,8.673 10.886,9.650 10.284,10.253 C9.682,10.855 8.706,10.855 8.102,10.253 ZM8.214,20.862 C7.612,21.463 6.636,21.463 6.033,20.862 C5.431,20.259 5.431,19.282 6.032,18.680 C6.636,18.077 7.612,18.077 8.214,18.680 C8.818,19.282 8.818,20.259 8.214,20.862 ZM1.350,26.147 C0.746,25.544 0.746,24.568 1.350,23.965 C1.951,23.363 2.928,23.363 3.531,23.965 C4.134,24.568 4.134,25.544 3.531,26.147 C2.928,26.749 1.951,26.750 1.350,26.147 Z"/>
</svg>